<mxfile host="app.diagrams.net" modified="2022-08-24T17:43:36.018Z" agent="5.0 (Macintosh; Intel Mac OS X 10_15_7) AppleWebKit/537.36 (KHTML, like Gecko) Chrome/104.0.0.0 Safari/537.36" etag="ja7Mb7S2xnzBAUpexsbC" version="20.2.5" type="github">
  <diagram id="Yj_vzEqTpsTSU6RkFpzm" name="Page-1">
    <mxGraphModel dx="2037" dy="1144" grid="1" gridSize="10" guides="1" tooltips="1" connect="1" arrows="1" fold="1" page="1" pageScale="1" pageWidth="850" pageHeight="1100" math="0" shadow="0">
      <root>
        <mxCell id="0" />
        <mxCell id="1" parent="0" />
        <mxCell id="6yyRVk2ILkX0JGuf4gln-77" value="VispyPointsLayer" style="rounded=0;whiteSpace=wrap;html=1;verticalAlign=top;align=center;spacingLeft=0;spacingTop=0;dashed=1;fillColor=#dae8fc;strokeColor=#6c8ebf;fontSize=16;fontFamily=Courier New;" parent="1" vertex="1">
          <mxGeometry x="1259.38" y="814.29" width="170" height="80" as="geometry" />
        </mxCell>
        <mxCell id="6yyRVk2ILkX0JGuf4gln-20" value="VispyImageLayer" style="rounded=0;whiteSpace=wrap;html=1;verticalAlign=top;align=center;spacingLeft=0;spacingTop=0;dashed=1;fillColor=#dae8fc;strokeColor=#6c8ebf;fontSize=16;fontFamily=Courier New;" parent="1" vertex="1">
          <mxGeometry x="1258.7600000000002" y="452.02" width="170" height="90" as="geometry" />
        </mxCell>
        <mxCell id="6yyRVk2ILkX0JGuf4gln-4" value="QtViewer" style="rounded=0;whiteSpace=wrap;html=1;verticalAlign=top;align=center;spacingLeft=0;spacingTop=0;dashed=1;fillColor=#dae8fc;strokeColor=#6c8ebf;fontSize=16;fontFamily=Courier New;" parent="1" vertex="1">
          <mxGeometry x="470" y="110" width="180" height="820" as="geometry" />
        </mxCell>
        <mxCell id="6yyRVk2ILkX0JGuf4gln-6" value="on_draw" style="rounded=0;whiteSpace=wrap;html=1;fontSize=14;fontFamily=Courier New;" parent="1" vertex="1">
          <mxGeometry x="480" y="140" width="160" height="780" as="geometry" />
        </mxCell>
        <mxCell id="6yyRVk2ILkX0JGuf4gln-2" value="VispyCanvas" style="rounded=0;whiteSpace=wrap;html=1;verticalAlign=top;align=center;spacingLeft=0;spacingTop=0;dashed=1;fillColor=#dae8fc;strokeColor=#6c8ebf;fontSize=16;fontFamily=Courier New;" parent="1" vertex="1">
          <mxGeometry x="280" y="100" width="170" height="840" as="geometry" />
        </mxCell>
        <mxCell id="6yyRVk2ILkX0JGuf4gln-3" value="events.draw" style="rounded=0;whiteSpace=wrap;html=1;fontSize=14;fontFamily=Courier New;" parent="1" vertex="1">
          <mxGeometry x="290" y="130" width="150" height="800" as="geometry" />
        </mxCell>
        <mxCell id="6yyRVk2ILkX0JGuf4gln-7" value="Image" style="rounded=0;whiteSpace=wrap;html=1;verticalAlign=top;align=center;spacingLeft=0;spacingTop=0;dashed=1;fillColor=#dae8fc;strokeColor=#6c8ebf;fontSize=16;fontFamily=Courier New;" parent="1" vertex="1">
          <mxGeometry x="670" y="120" width="570" height="450" as="geometry" />
        </mxCell>
        <mxCell id="6yyRVk2ILkX0JGuf4gln-5" value="_update_draw&lt;br style=&quot;font-size: 14px;&quot;&gt;(float, Array[float(2,2)], Tuple[int])" style="rounded=0;whiteSpace=wrap;html=1;fontSize=14;fontFamily=Courier New;" parent="1" vertex="1">
          <mxGeometry x="680" y="150" width="170" height="410" as="geometry" />
        </mxCell>
        <mxCell id="6yyRVk2ILkX0JGuf4gln-9" value="refresh" style="rounded=0;whiteSpace=wrap;html=1;fontSize=14;fontFamily=Courier New;" parent="1" vertex="1">
          <mxGeometry x="889.38" y="156.56" width="150" height="395.46" as="geometry" />
        </mxCell>
        <mxCell id="6yyRVk2ILkX0JGuf4gln-10" value="set_view_slice" style="rounded=0;whiteSpace=wrap;html=1;fontSize=14;fontFamily=Courier New;" parent="1" vertex="1">
          <mxGeometry x="1079.38" y="163.02" width="150" height="299" as="geometry" />
        </mxCell>
        <mxCell id="6yyRVk2ILkX0JGuf4gln-17" value="events.&lt;br style=&quot;font-size: 14px;&quot;&gt;set_data" style="rounded=0;whiteSpace=wrap;html=1;fontSize=14;fontFamily=Courier New;" parent="1" vertex="1">
          <mxGeometry x="1079.38" y="472.02" width="150" height="70.91" as="geometry" />
        </mxCell>
        <mxCell id="6yyRVk2ILkX0JGuf4gln-54" value="" style="endArrow=classic;html=1;rounded=0;fontFamily=Courier New;" parent="1" edge="1">
          <mxGeometry width="50" height="50" relative="1" as="geometry">
            <mxPoint x="249.99999999999966" y="130" as="sourcePoint" />
            <mxPoint x="289.99999999999966" y="130" as="targetPoint" />
          </mxGeometry>
        </mxCell>
        <mxCell id="6yyRVk2ILkX0JGuf4gln-55" value="" style="endArrow=classic;html=1;rounded=0;fontFamily=Courier New;" parent="1" edge="1">
          <mxGeometry width="50" height="50" relative="1" as="geometry">
            <mxPoint x="440.6199999999998" y="140" as="sourcePoint" />
            <mxPoint x="480.6199999999998" y="140" as="targetPoint" />
          </mxGeometry>
        </mxCell>
        <mxCell id="6yyRVk2ILkX0JGuf4gln-56" value="" style="endArrow=classic;html=1;rounded=0;fontFamily=Courier New;" parent="1" edge="1">
          <mxGeometry width="50" height="50" relative="1" as="geometry">
            <mxPoint x="640.62" y="150" as="sourcePoint" />
            <mxPoint x="680.62" y="150" as="targetPoint" />
          </mxGeometry>
        </mxCell>
        <mxCell id="6yyRVk2ILkX0JGuf4gln-57" value="" style="endArrow=classic;html=1;rounded=0;fontFamily=Courier New;" parent="1" edge="1">
          <mxGeometry width="50" height="50" relative="1" as="geometry">
            <mxPoint x="849.9999999999999" y="157.47" as="sourcePoint" />
            <mxPoint x="889.9999999999999" y="157.47" as="targetPoint" />
          </mxGeometry>
        </mxCell>
        <mxCell id="6yyRVk2ILkX0JGuf4gln-60" value="" style="endArrow=classic;html=1;rounded=0;fontFamily=Courier New;" parent="1" edge="1">
          <mxGeometry width="50" height="50" relative="1" as="geometry">
            <mxPoint x="1229.38" y="482.0200000000001" as="sourcePoint" />
            <mxPoint x="1269.38" y="482.0200000000001" as="targetPoint" />
          </mxGeometry>
        </mxCell>
        <mxCell id="6yyRVk2ILkX0JGuf4gln-61" value="" style="endArrow=classic;html=1;rounded=0;fontFamily=Courier New;" parent="1" edge="1">
          <mxGeometry width="50" height="50" relative="1" as="geometry">
            <mxPoint x="1269.38" y="531.5200000000001" as="sourcePoint" />
            <mxPoint x="1229.38" y="531.52" as="targetPoint" />
          </mxGeometry>
        </mxCell>
        <mxCell id="6yyRVk2ILkX0JGuf4gln-67" value="" style="endArrow=classic;html=1;rounded=0;fontFamily=Courier New;" parent="1" edge="1">
          <mxGeometry width="50" height="50" relative="1" as="geometry">
            <mxPoint x="889.9999999999999" y="552.0199999999998" as="sourcePoint" />
            <mxPoint x="849.9999999999999" y="552.0199999999995" as="targetPoint" />
          </mxGeometry>
        </mxCell>
        <mxCell id="6yyRVk2ILkX0JGuf4gln-68" value="" style="endArrow=classic;html=1;rounded=0;fontFamily=Courier New;" parent="1" edge="1">
          <mxGeometry width="50" height="50" relative="1" as="geometry">
            <mxPoint x="680.62" y="559.9999999999998" as="sourcePoint" />
            <mxPoint x="640.62" y="559.9999999999993" as="targetPoint" />
          </mxGeometry>
        </mxCell>
        <mxCell id="6yyRVk2ILkX0JGuf4gln-69" value="" style="endArrow=classic;html=1;rounded=0;fontFamily=Courier New;" parent="1" edge="1">
          <mxGeometry width="50" height="50" relative="1" as="geometry">
            <mxPoint x="480.63" y="919.9999999999998" as="sourcePoint" />
            <mxPoint x="440.63" y="919.9999999999993" as="targetPoint" />
          </mxGeometry>
        </mxCell>
        <mxCell id="6yyRVk2ILkX0JGuf4gln-70" value="" style="endArrow=classic;html=1;rounded=0;fontFamily=Courier New;" parent="1" edge="1">
          <mxGeometry width="50" height="50" relative="1" as="geometry">
            <mxPoint x="290.6300000000002" y="929.3099999999997" as="sourcePoint" />
            <mxPoint x="250.63000000000022" y="929.309999999999" as="targetPoint" />
          </mxGeometry>
        </mxCell>
        <mxCell id="6yyRVk2ILkX0JGuf4gln-79" value="Points" style="rounded=0;whiteSpace=wrap;html=1;verticalAlign=top;align=center;spacingLeft=0;spacingTop=0;dashed=1;fillColor=#dae8fc;strokeColor=#6c8ebf;fontSize=16;fontFamily=Courier New;" parent="1" vertex="1">
          <mxGeometry x="670" y="580" width="570" height="340" as="geometry" />
        </mxCell>
        <mxCell id="6yyRVk2ILkX0JGuf4gln-80" value="&lt;div&gt;_update_draw&lt;/div&gt;&lt;div&gt;(float, Array[float(2,2)], Tuple[int])&lt;/div&gt;" style="rounded=0;whiteSpace=wrap;html=1;fontSize=14;fontFamily=Courier New;" parent="1" vertex="1">
          <mxGeometry x="680" y="610" width="170" height="300" as="geometry" />
        </mxCell>
        <mxCell id="6yyRVk2ILkX0JGuf4gln-82" value="refresh" style="rounded=0;whiteSpace=wrap;html=1;fontSize=14;fontFamily=Courier New;" parent="1" vertex="1">
          <mxGeometry x="889.38" y="618.8299999999999" width="150" height="282.73" as="geometry" />
        </mxCell>
        <mxCell id="6yyRVk2ILkX0JGuf4gln-83" value="set_view_slice" style="rounded=0;whiteSpace=wrap;html=1;fontSize=14;fontFamily=Courier New;" parent="1" vertex="1">
          <mxGeometry x="1079.38" y="624.29" width="150" height="197.27" as="geometry" />
        </mxCell>
        <mxCell id="6yyRVk2ILkX0JGuf4gln-84" value="events.set_data" style="rounded=0;whiteSpace=wrap;html=1;fontSize=14;fontFamily=Courier New;" parent="1" vertex="1">
          <mxGeometry x="1079.38" y="833.38" width="150" height="60.91" as="geometry" />
        </mxCell>
        <mxCell id="6yyRVk2ILkX0JGuf4gln-86" value="" style="endArrow=classic;html=1;rounded=0;fontFamily=Courier New;" parent="1" edge="1">
          <mxGeometry width="50" height="50" relative="1" as="geometry">
            <mxPoint x="849.9999999999999" y="617.01" as="sourcePoint" />
            <mxPoint x="889.9999999999999" y="617.01" as="targetPoint" />
          </mxGeometry>
        </mxCell>
        <mxCell id="6yyRVk2ILkX0JGuf4gln-88" value="" style="endArrow=classic;html=1;rounded=0;fontFamily=Courier New;" parent="1" edge="1">
          <mxGeometry width="50" height="50" relative="1" as="geometry">
            <mxPoint x="1040" y="624.29" as="sourcePoint" />
            <mxPoint x="1080" y="624.29" as="targetPoint" />
          </mxGeometry>
        </mxCell>
        <mxCell id="6yyRVk2ILkX0JGuf4gln-89" value="" style="endArrow=classic;html=1;rounded=0;fontFamily=Courier New;" parent="1" edge="1">
          <mxGeometry width="50" height="50" relative="1" as="geometry">
            <mxPoint x="1230" y="844.29" as="sourcePoint" />
            <mxPoint x="1270" y="844.29" as="targetPoint" />
          </mxGeometry>
        </mxCell>
        <mxCell id="6yyRVk2ILkX0JGuf4gln-90" value="" style="endArrow=classic;html=1;rounded=0;fontFamily=Courier New;" parent="1" edge="1">
          <mxGeometry width="50" height="50" relative="1" as="geometry">
            <mxPoint x="1270" y="884.29" as="sourcePoint" />
            <mxPoint x="1230" y="884.29" as="targetPoint" />
          </mxGeometry>
        </mxCell>
        <mxCell id="6yyRVk2ILkX0JGuf4gln-91" value="" style="endArrow=classic;html=1;rounded=0;fontFamily=Courier New;" parent="1" edge="1">
          <mxGeometry width="50" height="50" relative="1" as="geometry">
            <mxPoint x="1080" y="894.29" as="sourcePoint" />
            <mxPoint x="1040" y="894.29" as="targetPoint" />
          </mxGeometry>
        </mxCell>
        <mxCell id="6yyRVk2ILkX0JGuf4gln-94" value="" style="endArrow=classic;html=1;rounded=0;fontFamily=Courier New;" parent="1" edge="1">
          <mxGeometry width="50" height="50" relative="1" as="geometry">
            <mxPoint x="1040" y="833.3799999999997" as="sourcePoint" />
            <mxPoint x="1080" y="833.3799999999997" as="targetPoint" />
          </mxGeometry>
        </mxCell>
        <mxCell id="6yyRVk2ILkX0JGuf4gln-96" value="" style="endArrow=classic;html=1;rounded=0;fontFamily=Courier New;" parent="1" edge="1">
          <mxGeometry width="50" height="50" relative="1" as="geometry">
            <mxPoint x="889.9999999999999" y="901.5599999999997" as="sourcePoint" />
            <mxPoint x="849.9999999999999" y="901.5599999999993" as="targetPoint" />
          </mxGeometry>
        </mxCell>
        <mxCell id="6yyRVk2ILkX0JGuf4gln-99" value="" style="endArrow=classic;html=1;rounded=0;fontFamily=Courier New;" parent="1" edge="1">
          <mxGeometry width="50" height="50" relative="1" as="geometry">
            <mxPoint x="1079.38" y="821.56" as="sourcePoint" />
            <mxPoint x="1039.3799999999999" y="821.56" as="targetPoint" />
          </mxGeometry>
        </mxCell>
        <mxCell id="6yyRVk2ILkX0JGuf4gln-100" value="" style="endArrow=classic;html=1;rounded=0;fontFamily=Courier New;" parent="1" edge="1">
          <mxGeometry width="50" height="50" relative="1" as="geometry">
            <mxPoint x="680.62" y="909.9999999999998" as="sourcePoint" />
            <mxPoint x="640.62" y="909.9999999999993" as="targetPoint" />
          </mxGeometry>
        </mxCell>
        <mxCell id="6yyRVk2ILkX0JGuf4gln-101" value="" style="endArrow=classic;html=1;rounded=0;fontFamily=Courier New;" parent="1" edge="1">
          <mxGeometry width="50" height="50" relative="1" as="geometry">
            <mxPoint x="640.62" y="610" as="sourcePoint" />
            <mxPoint x="680.62" y="610" as="targetPoint" />
          </mxGeometry>
        </mxCell>
        <mxCell id="6yyRVk2ILkX0JGuf4gln-21" value="_on_data_change" style="rounded=0;whiteSpace=wrap;html=1;fontSize=14;fontFamily=Courier New;" parent="1" vertex="1">
          <mxGeometry x="1268.7600000000002" y="482.02" width="150" height="50" as="geometry" />
        </mxCell>
        <mxCell id="6yyRVk2ILkX0JGuf4gln-78" value="_on_data_change" style="rounded=0;whiteSpace=wrap;html=1;fontSize=14;fontFamily=Courier New;" parent="1" vertex="1">
          <mxGeometry x="1269.38" y="844.29" width="150" height="40" as="geometry" />
        </mxCell>
        <mxCell id="6yyRVk2ILkX0JGuf4gln-105" value="" style="endArrow=classic;html=1;rounded=0;fontSize=20;strokeWidth=2;fontFamily=Courier New;" parent="1" edge="1">
          <mxGeometry width="50" height="50" relative="1" as="geometry">
            <mxPoint x="40" y="60" as="sourcePoint" />
            <mxPoint x="40" y="990" as="targetPoint" />
          </mxGeometry>
        </mxCell>
        <mxCell id="6yyRVk2ILkX0JGuf4gln-106" value="Time" style="edgeLabel;html=1;align=center;verticalAlign=middle;resizable=0;points=[];fontSize=20;horizontal=0;fontFamily=Courier New;" parent="6yyRVk2ILkX0JGuf4gln-105" vertex="1" connectable="0">
          <mxGeometry x="-0.0443" y="-5" relative="1" as="geometry">
            <mxPoint as="offset" />
          </mxGeometry>
        </mxCell>
        <mxCell id="6yyRVk2ILkX0JGuf4gln-107" value="Qt event loop" style="rounded=0;whiteSpace=wrap;html=1;verticalAlign=middle;align=center;spacingLeft=0;spacingTop=0;dashed=1;fillColor=#dae8fc;strokeColor=#6c8ebf;fontSize=16;horizontal=1;fontFamily=Courier New;" parent="1" vertex="1">
          <mxGeometry x="80" y="60" width="170" height="920" as="geometry" />
        </mxCell>
        <mxCell id="6yyRVk2ILkX0JGuf4gln-115" value="" style="endArrow=baseDash;html=1;rounded=0;fontSize=20;strokeWidth=2;endFill=0;startArrow=baseDash;startFill=0;endSize=12;startSize=12;fontFamily=Courier New;" parent="1" edge="1">
          <mxGeometry width="50" height="50" relative="1" as="geometry">
            <mxPoint x="280" y="40" as="sourcePoint" />
            <mxPoint x="450" y="40" as="targetPoint" />
          </mxGeometry>
        </mxCell>
        <mxCell id="6yyRVk2ILkX0JGuf4gln-118" value="vispy" style="edgeLabel;html=1;align=center;verticalAlign=middle;resizable=0;points=[];fontSize=20;fontFamily=Courier New;" parent="6yyRVk2ILkX0JGuf4gln-115" vertex="1" connectable="0">
          <mxGeometry x="-0.0357" y="1" relative="1" as="geometry">
            <mxPoint as="offset" />
          </mxGeometry>
        </mxCell>
        <mxCell id="6yyRVk2ILkX0JGuf4gln-120" value="" style="endArrow=baseDash;html=1;rounded=0;fontSize=20;strokeWidth=2;endFill=0;startArrow=baseDash;startFill=0;endSize=12;startSize=12;fontFamily=Courier New;" parent="1" edge="1">
          <mxGeometry width="50" height="50" relative="1" as="geometry">
            <mxPoint x="670" y="40" as="sourcePoint" />
            <mxPoint x="1220" y="40" as="targetPoint" />
          </mxGeometry>
        </mxCell>
        <mxCell id="6yyRVk2ILkX0JGuf4gln-121" value="&lt;font style=&quot;font-size: 20px;&quot;&gt;layers&lt;/font&gt;" style="edgeLabel;html=1;align=center;verticalAlign=middle;resizable=0;points=[];fontSize=20;fontFamily=Courier New;" parent="6yyRVk2ILkX0JGuf4gln-120" vertex="1" connectable="0">
          <mxGeometry x="-0.0357" y="1" relative="1" as="geometry">
            <mxPoint as="offset" />
          </mxGeometry>
        </mxCell>
        <mxCell id="6yyRVk2ILkX0JGuf4gln-122" value="" style="endArrow=baseDash;html=1;rounded=0;fontSize=20;strokeWidth=2;endFill=0;startArrow=baseDash;startFill=0;endSize=12;startSize=12;fontFamily=Courier New;" parent="1" edge="1">
          <mxGeometry width="50" height="50" relative="1" as="geometry">
            <mxPoint x="1239.38" y="40" as="sourcePoint" />
            <mxPoint x="1409.38" y="40" as="targetPoint" />
          </mxGeometry>
        </mxCell>
        <mxCell id="6yyRVk2ILkX0JGuf4gln-123" value="vispy" style="edgeLabel;html=1;align=center;verticalAlign=middle;resizable=0;points=[];fontSize=20;fontFamily=Courier New;" parent="6yyRVk2ILkX0JGuf4gln-122" vertex="1" connectable="0">
          <mxGeometry x="-0.0357" y="1" relative="1" as="geometry">
            <mxPoint as="offset" />
          </mxGeometry>
        </mxCell>
        <mxCell id="P1suHqEP0PZAsXJT08FJ-1" value="" style="endArrow=classic;html=1;rounded=0;fontFamily=Courier New;" parent="1" edge="1">
          <mxGeometry width="50" height="50" relative="1" as="geometry">
            <mxPoint x="1039.3799999999999" y="163.02000000000007" as="sourcePoint" />
            <mxPoint x="1079.38" y="163.02000000000007" as="targetPoint" />
          </mxGeometry>
        </mxCell>
        <mxCell id="P1suHqEP0PZAsXJT08FJ-2" value="" style="endArrow=classic;html=1;rounded=0;fontFamily=Courier New;" parent="1" edge="1">
          <mxGeometry width="50" height="50" relative="1" as="geometry">
            <mxPoint x="1079.38" y="462.01999999999975" as="sourcePoint" />
            <mxPoint x="1039.3799999999999" y="462.0199999999995" as="targetPoint" />
          </mxGeometry>
        </mxCell>
        <mxCell id="P1suHqEP0PZAsXJT08FJ-3" value="" style="endArrow=classic;html=1;rounded=0;fontFamily=Courier New;" parent="1" edge="1">
          <mxGeometry width="50" height="50" relative="1" as="geometry">
            <mxPoint x="1079.69" y="542.9299999999997" as="sourcePoint" />
            <mxPoint x="1039.69" y="542.9299999999995" as="targetPoint" />
          </mxGeometry>
        </mxCell>
        <mxCell id="P1suHqEP0PZAsXJT08FJ-4" value="" style="endArrow=classic;html=1;rounded=0;fontFamily=Courier New;" parent="1" edge="1">
          <mxGeometry width="50" height="50" relative="1" as="geometry">
            <mxPoint x="1039.38" y="472.02" as="sourcePoint" />
            <mxPoint x="1079.38" y="472.02" as="targetPoint" />
          </mxGeometry>
        </mxCell>
        <mxCell id="P1suHqEP0PZAsXJT08FJ-5" value="" style="endArrow=baseDash;html=1;rounded=0;fontSize=20;strokeWidth=2;endFill=0;startArrow=baseDash;startFill=0;endSize=12;startSize=12;fontFamily=Courier New;" parent="1" edge="1">
          <mxGeometry width="50" height="50" relative="1" as="geometry">
            <mxPoint x="470" y="40" as="sourcePoint" />
            <mxPoint x="650" y="40" as="targetPoint" />
          </mxGeometry>
        </mxCell>
        <mxCell id="P1suHqEP0PZAsXJT08FJ-6" value="qt" style="edgeLabel;html=1;align=center;verticalAlign=middle;resizable=0;points=[];fontSize=20;fontFamily=Courier New;" parent="P1suHqEP0PZAsXJT08FJ-5" vertex="1" connectable="0">
          <mxGeometry x="-0.0357" y="1" relative="1" as="geometry">
            <mxPoint as="offset" />
          </mxGeometry>
        </mxCell>
      </root>
    </mxGraphModel>
  </diagram>
</mxfile>
